<svg xmlns="http://www.w3.org/2000/svg" version="1.1" xmlns:xlink="http://www.w3.org/1999/xlink" xmlns:svgjs="http://svgjs.dev/svgjs" width="2000" height="373" viewBox="0 0 2000 373"><g transform="matrix(1,0,0,1,-1.2121212121212466,-0.6942201485422572)"><svg viewBox="0 0 396 74" data-background-color="#ffffff" preserveAspectRatio="xMidYMid meet" height="373" width="2000" xmlns="http://www.w3.org/2000/svg" xmlns:xlink="http://www.w3.org/1999/xlink"><g id="tight-bounds" transform="matrix(1,0,0,1,0.2400000000000091,0.1377273216947117)"><svg viewBox="0 0 395.52 73.72447877644362" height="73.72447877644362" width="395.52"><g><svg viewBox="0 0 518.586382527917 96.66391270335782" height="73.72447877644362" width="395.52"><g transform="matrix(1,0,0,1,123.066382527917,20.372242292902104)"><svg viewBox="0 0 395.52 55.919428117553615" height="55.919428117553615" width="395.52"><g id="textblocktransform"><svg viewBox="0 0 395.52 55.919428117553615" height="55.919428117553615" width="395.52" id="textblock"><g><svg viewBox="0 0 395.52 55.919428117553615" height="55.919428117553615" width="395.52"><g transform="matrix(1,0,0,1,0,0)"><svg width="395.52" viewBox="3.98 -35.99 307.34999999999997 43.46" height="55.919428117553615" data-palette-color="#fc740a"><path d="M13.67-35.16L13.67 0 3.98 0 3.98-35.16 13.67-35.16ZM36.35 0L28.32-26.22 25.58 0 19.6 0 25.58-35.16 34.45-35.16 42.67-8.33 51-35.16 59.86-35.16 64.84 0 54.98 0 52.07-25.54 45.21 0 36.35 0ZM104.71-16.82L104.71-16.82 104.71-16.36Q104.66-14.31 104.28-12.11 103.9-9.91 103.22-7.71 102.53-5.52 101.58-3.37 100.63-1.22 99.45 0.74 98.26 2.71 96.89 4.43 95.53 6.15 94.01 7.47L94.01 7.47 90.38 5.37Q91.23 3.93 91.93 2.23 92.62 0.54 93.18-1.32 93.75-3.17 94.15-5.13 94.55-7.08 94.82-9.01 95.09-10.94 95.22-12.81 95.36-14.67 95.36-16.36L95.36-16.36Q95.36-17.68 95.34-19.35 95.33-21.02 95.15-22.75 94.97-24.49 94.55-26.14 94.14-27.78 93.32-29.08 92.5-30.37 91.22-31.15 89.94-31.93 88.03-31.93L88.03-31.93Q86.35-31.93 85.14-31.36 83.93-30.79 83.09-29.82 82.25-28.86 81.75-27.59 81.25-26.32 80.96-24.91 80.68-23.51 80.6-22.08 80.51-20.65 80.51-19.38L80.51-19.38 80.51-12.57 91.04-12.57 91.04-8.54 80.51-8.54 80.51 0 70.82 0 70.82-17.87Q70.82-21.7 72.04-25 73.26-28.3 75.5-30.73 77.73-33.15 80.87-34.53 84-35.91 87.86-35.91L87.86-35.91Q90.47-35.91 92.76-35.17 95.04-34.42 96.92-33.12 98.8-31.81 100.28-30.02 101.75-28.22 102.74-26.1 103.73-23.97 104.24-21.61 104.76-19.24 104.71-16.82ZM142.94-26.44L142.94-26.44 138.76-24.68Q138.27-26.27 137.46-27.59 136.64-28.91 135.5-29.85 134.37-30.79 132.93-31.31 131.49-31.84 129.78-31.84L129.78-31.84Q127.95-31.84 126.42-31.23 124.89-30.62 123.69-29.58 122.48-28.54 121.57-27.15 120.67-25.76 120.07-24.18 119.47-22.61 119.17-20.92 118.86-19.24 118.86-17.63L118.86-17.63Q118.86-15.06 119.46-12.52 120.06-9.99 121.37-7.96 122.67-5.93 124.75-4.68 126.82-3.42 129.78-3.42L129.78-3.42Q131.39-3.42 132.29-4.14 133.2-4.86 133.2-6.67L133.2-6.67 133.2-17.46 142.89-17.46 142.89 0 140.08 0 138.37-2.76Q136.03-0.98 133.21-0.13 130.39 0.71 127.46 0.71L127.46 0.71Q124.87 0.71 122.49 0.07 120.11-0.56 118.06-1.73 116.01-2.91 114.34-4.57 112.66-6.23 111.48-8.25 110.3-10.28 109.65-12.66 109-15.04 109-17.63L109-17.63Q109-20.21 109.65-22.6 110.3-24.98 111.48-27.01 112.66-29.05 114.34-30.71 116.01-32.37 118.06-33.54 120.11-34.72 122.49-35.35 124.87-35.99 127.46-35.99L127.46-35.99Q129.95-35.99 132.33-35.4 134.71-34.81 136.76-33.63 138.81-32.45 140.41-30.65 142.01-28.86 142.94-26.44ZM159.44-35.16L159.44 0 149.75 0 149.75-35.16 159.44-35.16ZM171.89-24.12L171.89 0 167.39 0 167.39-35.16 173.69-35.16 195.06-11.01 195.06-35.16 199.52-35.16 199.52 0 193.22 0 171.89-24.12ZM240.95-16.82L240.95-16.82 240.95-16.36Q240.9-14.31 240.52-12.11 240.15-9.91 239.46-7.71 238.78-5.52 237.83-3.37 236.87-1.22 235.69 0.74 234.51 2.71 233.14 4.43 231.77 6.15 230.26 7.47L230.26 7.47 226.62 5.37Q227.48 3.93 228.17 2.23 228.87 0.54 229.43-1.32 229.99-3.17 230.39-5.13 230.8-7.08 231.06-9.01 231.33-10.94 231.47-12.81 231.6-14.67 231.6-16.36L231.6-16.36Q231.6-17.68 231.59-19.35 231.58-21.02 231.39-22.75 231.21-24.49 230.8-26.14 230.38-27.78 229.56-29.08 228.74-30.37 227.46-31.15 226.18-31.93 224.28-31.93L224.28-31.93Q222.59-31.93 221.38-31.36 220.18-30.79 219.33-29.82 218.49-28.86 217.99-27.59 217.49-26.32 217.21-24.91 216.93-23.51 216.84-22.08 216.76-20.65 216.76-19.38L216.76-19.38 216.76-12.57 227.28-12.57 227.28-8.54 216.76-8.54 216.76 0 207.07 0 207.07-17.87Q207.07-21.7 208.29-25 209.51-28.3 211.74-30.73 213.97-33.15 217.11-34.53 220.25-35.91 224.11-35.91L224.11-35.91Q226.72-35.91 229-35.17 231.28-34.42 233.16-33.12 235.04-31.81 236.52-30.02 238-28.22 238.99-26.1 239.98-23.97 240.49-21.61 241-19.24 240.95-16.82ZM256.94-13.13L256.94 0 247.25 0 247.25-35.16 264.53-35.16Q266.97-35.16 269.25-34.58 271.52-34.01 273.26-32.78 275.01-31.54 276.04-29.59 277.08-27.64 277.08-24.85L277.08-24.85Q277.08-22.68 276.17-20.76 275.25-18.85 273.73-17.35 272.2-15.84 270.22-14.86 268.24-13.87 266.12-13.55L266.12-13.55Q267.07-11.94 268.11-10.5 269.15-9.06 270.21-7.8 271.27-6.54 272.32-5.48 273.37-4.42 274.32-3.54L274.32-3.54Q276.57-1.49 278.77 0L278.77 0 266.68 0Q265.22-1.39 263.9-3.34L263.9-3.34Q262.78-5 261.64-7.46 260.5-9.91 259.89-13.13L259.89-13.13 256.94-13.13ZM267.24-24.85L267.24-24.85Q267.24-28.39 265.52-30.05 263.8-31.71 260.36-31.71L260.36-31.71 256.94-31.71 256.94-16.46 260.36-16.46Q262.19-16.46 263.5-17.15 264.8-17.85 265.63-19.01 266.46-20.17 266.85-21.68 267.24-23.19 267.24-24.85ZM304.5-35.16L311.33-35.16 299.96-14.77 299.96 0 290.26 0 290.26-14.23 278.76-35.16 288.65-35.16 296.29-17.48 304.5-35.16Z" opacity="1" transform="matrix(1,0,0,1,0,0)" fill="#fc740a" class="wordmark-text-0" data-fill-palette-color="primary" id="text-0"></path></svg></g></svg></g></svg></g></svg></g><g><svg viewBox="0 0 96.66391270335782 96.66391270335782" height="96.66391270335782" width="96.66391270335782"><g><svg></svg></g><g id="icon-0"><svg viewBox="0 0 96.66391270335782 96.66391270335782" height="96.66391270335782" width="96.66391270335782"><g><path d="M0 48.332c0-26.693 21.639-48.332 48.332-48.332 26.693 0 48.332 21.639 48.332 48.332 0 26.693-21.639 48.332-48.332 48.332-26.693 0-48.332-21.639-48.332-48.332zM48.332 91.621c23.908 0 43.289-19.381 43.289-43.289 0-23.908-19.381-43.289-43.289-43.289-23.908 0-43.289 19.381-43.289 43.289 0 23.908 19.381 43.289 43.289 43.289z" data-fill-palette-color="accent" fill="#ff851b" stroke="transparent"></path></g><g transform="matrix(1,0,0,1,24.116996739975214,24.116996739975214)"><svg viewBox="0 0 48.429919223407396 48.429919223407396" height="48.429919223407396" width="48.429919223407396"><g><svg xmlns="http://www.w3.org/2000/svg" xmlns:xlink="http://www.w3.org/1999/xlink" xml:space="preserve" version="1.1" shape-rendering="geometricPrecision" text-rendering="geometricPrecision" image-rendering="optimizeQuality" fill-rule="evenodd" clip-rule="evenodd" viewBox="129909.25 129909.25 3040181.5 3040181.5" x="0" y="0" height="48.429919223407396" width="48.429919223407396" class="icon-cg-0" data-fill-palette-color="accent" id="cg-0"><g fill="#ff851b" data-fill-palette-color="accent"><path fill="#ff851b" d="M1791953 233977l169783 552728c13446 43810 42796 76044 85125 93583 150255 62246 269913-179136 410931-38080 141056 141018-100326 260676-38080 410931 17539 42329 49773 71679 93583 85125l552728 169783c138757 42640 138757 241266 0 283906l-552728 169783c-43810 13446-76044 42796-93583 85125-61973 149592 179838 269251 38080 410931-141018 141056-260676-100326-410931-38080-42329 17539-71679 49773-85125 93583l-169783 552728c-42640 138757-241266 138757-283906 0l-169783-552728c-13446-43810-42796-76044-85125-93583-149592-61973-269251 179838-410931 38080-141758-141680 100053-261339 38080-410931-17539-42329-49773-71679-93583-85125l-552728-169783c-138757-42640-138757-241266 0-283906l552728-169783c43810-13446 76044-42796 93583-85125 61973-149592-179838-269251-38080-410931 141680-141758 261339 100053 410931 38080 42329-17539 71679-49773 85125-93583l169783-552728c42640-138757 241266-138757 283906 0z" data-fill-palette-color="accent"></path></g></svg></g></svg></g></svg></g></svg></g></svg></g><defs></defs></svg><rect width="395.52" height="73.72447877644362" fill="none" stroke="none" visibility="hidden"></rect></g></svg></g></svg>